<mxfile host="app.diagrams.net" modified="2023-11-27T11:28:48.133Z" agent="Mozilla/5.0 (Windows NT 10.0; Win64; x64) AppleWebKit/537.36 (KHTML, like Gecko) Chrome/119.0.0.0 Safari/537.36 Edg/119.0.0.0" etag="tULuHFneKT9d1rjsuR3G" version="22.1.4" type="github">
  <diagram id="C5RBs43oDa-KdzZeNtuy" name="Page-1">
    <mxGraphModel dx="1194" dy="639" grid="1" gridSize="1" guides="1" tooltips="1" connect="1" arrows="1" fold="1" page="1" pageScale="1" pageWidth="827" pageHeight="1169" math="0" shadow="0">
      <root>
        <mxCell id="WIyWlLk6GJQsqaUBKTNV-0" />
        <mxCell id="WIyWlLk6GJQsqaUBKTNV-1" parent="WIyWlLk6GJQsqaUBKTNV-0" />
        <mxCell id="xGkntD76_cqOf1HurXCr-28" value="" style="rounded=0;html=1;jettySize=auto;orthogonalLoop=1;fontSize=11;endArrow=classicThin;endFill=1;endSize=8;strokeWidth=1;shadow=0;labelBackgroundColor=none;edgeStyle=orthogonalEdgeStyle;movable=1;resizable=1;rotatable=1;deletable=1;editable=1;locked=0;connectable=1;" parent="WIyWlLk6GJQsqaUBKTNV-1" source="xGkntD76_cqOf1HurXCr-29" edge="1">
          <mxGeometry relative="1" as="geometry">
            <mxPoint x="233.5" y="139" as="targetPoint" />
          </mxGeometry>
        </mxCell>
        <mxCell id="xGkntD76_cqOf1HurXCr-29" value="开始" style="rounded=1;whiteSpace=wrap;html=1;fontSize=12;glass=0;strokeWidth=1;shadow=0;fillColor=#eeeeee;strokeColor=#36393d;" parent="WIyWlLk6GJQsqaUBKTNV-1" vertex="1">
          <mxGeometry x="173.5" y="59" width="120" height="40" as="geometry" />
        </mxCell>
        <mxCell id="xGkntD76_cqOf1HurXCr-30" value="定义开关状态为0&lt;br&gt;低电压循环状态为0" style="rounded=0;whiteSpace=wrap;html=1;fillColor=#dae8fc;strokeColor=#6c8ebf;" parent="WIyWlLk6GJQsqaUBKTNV-1" vertex="1">
          <mxGeometry x="171" y="139" width="125" height="40" as="geometry" />
        </mxCell>
        <mxCell id="xGkntD76_cqOf1HurXCr-31" value="" style="rounded=0;html=1;jettySize=auto;orthogonalLoop=1;fontSize=11;endArrow=classicThin;endFill=1;endSize=8;strokeWidth=1;shadow=0;labelBackgroundColor=none;edgeStyle=orthogonalEdgeStyle;movable=1;resizable=1;rotatable=1;deletable=1;editable=1;locked=0;connectable=1;exitX=0.5;exitY=1;exitDx=0;exitDy=0;" parent="WIyWlLk6GJQsqaUBKTNV-1" source="xGkntD76_cqOf1HurXCr-30" edge="1">
          <mxGeometry relative="1" as="geometry">
            <mxPoint x="243.5" y="200" as="sourcePoint" />
            <mxPoint x="233.5" y="229" as="targetPoint" />
          </mxGeometry>
        </mxCell>
        <mxCell id="xGkntD76_cqOf1HurXCr-32" value="读取电源电压" style="rounded=0;whiteSpace=wrap;html=1;fillColor=#dae8fc;strokeColor=#6c8ebf;" parent="WIyWlLk6GJQsqaUBKTNV-1" vertex="1">
          <mxGeometry x="171" y="229" width="125" height="40" as="geometry" />
        </mxCell>
        <mxCell id="xGkntD76_cqOf1HurXCr-33" value="" style="rounded=0;html=1;jettySize=auto;orthogonalLoop=1;fontSize=11;endArrow=classicThin;endFill=1;endSize=8;strokeWidth=1;shadow=0;labelBackgroundColor=none;edgeStyle=orthogonalEdgeStyle;movable=1;resizable=1;rotatable=1;deletable=1;editable=1;locked=0;connectable=1;exitX=0.5;exitY=1;exitDx=0;exitDy=0;" parent="WIyWlLk6GJQsqaUBKTNV-1" edge="1">
          <mxGeometry relative="1" as="geometry">
            <mxPoint x="233.5" y="269" as="sourcePoint" />
            <mxPoint x="233.5" y="319" as="targetPoint" />
          </mxGeometry>
        </mxCell>
        <mxCell id="xGkntD76_cqOf1HurXCr-84" style="edgeStyle=orthogonalEdgeStyle;rounded=0;orthogonalLoop=1;jettySize=auto;html=1;endArrow=none;endFill=0;" parent="WIyWlLk6GJQsqaUBKTNV-1" source="xGkntD76_cqOf1HurXCr-34" edge="1">
          <mxGeometry relative="1" as="geometry">
            <mxPoint x="235" y="616" as="targetPoint" />
            <Array as="points">
              <mxPoint x="420" y="616" />
            </Array>
          </mxGeometry>
        </mxCell>
        <mxCell id="xGkntD76_cqOf1HurXCr-34" value="开关状态自增&lt;br&gt;低电压循环状态置200" style="rounded=0;whiteSpace=wrap;html=1;fillColor=#dae8fc;strokeColor=#6c8ebf;" parent="WIyWlLk6GJQsqaUBKTNV-1" vertex="1">
          <mxGeometry x="358" y="548" width="125" height="40" as="geometry" />
        </mxCell>
        <mxCell id="xGkntD76_cqOf1HurXCr-40" value="&lt;font style=&quot;font-size: 12px;&quot;&gt;电压小于0.8？&lt;/font&gt;" style="rhombus;whiteSpace=wrap;html=1;shadow=0;fontFamily=Helvetica;fontSize=12;align=center;strokeWidth=1;spacing=6;spacingTop=-4;fillColor=#d5e8d4;strokeColor=#82b366;" parent="WIyWlLk6GJQsqaUBKTNV-1" vertex="1">
          <mxGeometry x="183.38" y="320" width="100.25" height="70" as="geometry" />
        </mxCell>
        <mxCell id="xGkntD76_cqOf1HurXCr-56" value="" style="rounded=0;html=1;jettySize=auto;orthogonalLoop=1;fontSize=11;endArrow=classicThin;endFill=1;endSize=8;strokeWidth=1;shadow=0;labelBackgroundColor=none;edgeStyle=orthogonalEdgeStyle;movable=1;resizable=1;rotatable=1;deletable=1;editable=1;locked=0;connectable=1;exitX=1;exitY=0.5;exitDx=0;exitDy=0;entryX=0;entryY=0.5;entryDx=0;entryDy=0;" parent="WIyWlLk6GJQsqaUBKTNV-1" source="xGkntD76_cqOf1HurXCr-40" edge="1">
          <mxGeometry relative="1" as="geometry">
            <mxPoint x="284" y="355" as="sourcePoint" />
            <mxPoint x="366.25" y="355" as="targetPoint" />
            <Array as="points" />
          </mxGeometry>
        </mxCell>
        <mxCell id="xGkntD76_cqOf1HurXCr-57" value="" style="rounded=0;html=1;jettySize=auto;orthogonalLoop=1;fontSize=11;endArrow=classicThin;endFill=1;endSize=8;strokeWidth=1;shadow=0;labelBackgroundColor=none;edgeStyle=orthogonalEdgeStyle;movable=1;resizable=1;rotatable=1;deletable=1;editable=1;locked=0;connectable=1;exitX=0.5;exitY=1;exitDx=0;exitDy=0;" parent="WIyWlLk6GJQsqaUBKTNV-1" source="xGkntD76_cqOf1HurXCr-40" edge="1">
          <mxGeometry relative="1" as="geometry">
            <mxPoint x="236.5" y="390" as="sourcePoint" />
            <mxPoint x="234" y="440" as="targetPoint" />
            <Array as="points">
              <mxPoint x="234" y="415" />
              <mxPoint x="234" y="415" />
            </Array>
          </mxGeometry>
        </mxCell>
        <mxCell id="xGkntD76_cqOf1HurXCr-66" value="" style="edgeStyle=orthogonalEdgeStyle;rounded=0;orthogonalLoop=1;jettySize=auto;html=1;" parent="WIyWlLk6GJQsqaUBKTNV-1" source="xGkntD76_cqOf1HurXCr-58" target="xGkntD76_cqOf1HurXCr-59" edge="1">
          <mxGeometry relative="1" as="geometry" />
        </mxCell>
        <mxCell id="xGkntD76_cqOf1HurXCr-58" value="开关状态自增" style="rounded=0;whiteSpace=wrap;html=1;fillColor=#dae8fc;strokeColor=#6c8ebf;" parent="WIyWlLk6GJQsqaUBKTNV-1" vertex="1">
          <mxGeometry x="173.5" y="440" width="125" height="40" as="geometry" />
        </mxCell>
        <mxCell id="xGkntD76_cqOf1HurXCr-81" style="edgeStyle=orthogonalEdgeStyle;rounded=0;orthogonalLoop=1;jettySize=auto;html=1;" parent="WIyWlLk6GJQsqaUBKTNV-1" source="xGkntD76_cqOf1HurXCr-59" edge="1">
          <mxGeometry relative="1" as="geometry">
            <mxPoint x="357" y="567" as="targetPoint" />
          </mxGeometry>
        </mxCell>
        <mxCell id="xGkntD76_cqOf1HurXCr-59" value="&lt;font style=&quot;font-size: 10px;&quot;&gt;低电压状态&lt;br&gt;循环小于200次？&lt;/font&gt;" style="rhombus;whiteSpace=wrap;html=1;shadow=0;fontFamily=Helvetica;fontSize=12;align=center;strokeWidth=1;spacing=6;spacingTop=-4;fillColor=#d5e8d4;strokeColor=#82b366;" parent="WIyWlLk6GJQsqaUBKTNV-1" vertex="1">
          <mxGeometry x="185.88" y="533" width="100.25" height="70" as="geometry" />
        </mxCell>
        <mxCell id="xGkntD76_cqOf1HurXCr-60" value="&lt;font style=&quot;font-size: 10px;&quot;&gt;N&lt;/font&gt;" style="text;html=1;strokeColor=none;fillColor=default;align=center;verticalAlign=middle;whiteSpace=wrap;rounded=0;" parent="WIyWlLk6GJQsqaUBKTNV-1" vertex="1">
          <mxGeometry x="310" y="350" width="20" height="10" as="geometry" />
        </mxCell>
        <mxCell id="xGkntD76_cqOf1HurXCr-65" value="" style="edgeStyle=orthogonalEdgeStyle;rounded=0;orthogonalLoop=1;jettySize=auto;html=1;" parent="WIyWlLk6GJQsqaUBKTNV-1" source="xGkntD76_cqOf1HurXCr-61" target="xGkntD76_cqOf1HurXCr-64" edge="1">
          <mxGeometry relative="1" as="geometry" />
        </mxCell>
        <mxCell id="xGkntD76_cqOf1HurXCr-61" value="反馈开关状态" style="rounded=0;whiteSpace=wrap;html=1;fillColor=#dae8fc;strokeColor=#6c8ebf;" parent="WIyWlLk6GJQsqaUBKTNV-1" vertex="1">
          <mxGeometry x="173.5" y="653" width="125" height="40" as="geometry" />
        </mxCell>
        <mxCell id="xGkntD76_cqOf1HurXCr-62" value="" style="rounded=0;html=1;jettySize=auto;orthogonalLoop=1;fontSize=11;endArrow=classicThin;endFill=1;endSize=8;strokeWidth=1;shadow=0;labelBackgroundColor=none;edgeStyle=orthogonalEdgeStyle;movable=1;resizable=1;rotatable=1;deletable=1;editable=1;locked=0;connectable=1;exitX=0.5;exitY=1;exitDx=0;exitDy=0;" parent="WIyWlLk6GJQsqaUBKTNV-1" edge="1">
          <mxGeometry relative="1" as="geometry">
            <mxPoint x="235.58" y="603" as="sourcePoint" />
            <mxPoint x="235.58" y="653" as="targetPoint" />
          </mxGeometry>
        </mxCell>
        <mxCell id="xGkntD76_cqOf1HurXCr-64" value="结束" style="rounded=1;whiteSpace=wrap;html=1;fontSize=12;glass=0;strokeWidth=1;shadow=0;fillColor=#eeeeee;strokeColor=#36393d;" parent="WIyWlLk6GJQsqaUBKTNV-1" vertex="1">
          <mxGeometry x="176" y="743" width="120" height="40" as="geometry" />
        </mxCell>
        <mxCell id="xGkntD76_cqOf1HurXCr-68" value="&lt;font style=&quot;font-size: 10px;&quot;&gt;Y&lt;/font&gt;" style="text;html=1;strokeColor=none;fillColor=default;align=center;verticalAlign=middle;whiteSpace=wrap;rounded=0;" parent="WIyWlLk6GJQsqaUBKTNV-1" vertex="1">
          <mxGeometry x="224" y="405" width="20" height="10" as="geometry" />
        </mxCell>
        <mxCell id="xGkntD76_cqOf1HurXCr-78" style="edgeStyle=orthogonalEdgeStyle;rounded=0;orthogonalLoop=1;jettySize=auto;html=1;exitX=0.5;exitY=1;exitDx=0;exitDy=0;endArrow=none;endFill=0;" parent="WIyWlLk6GJQsqaUBKTNV-1" source="xGkntD76_cqOf1HurXCr-69" edge="1">
          <mxGeometry relative="1" as="geometry">
            <mxPoint x="597.27" y="385" as="sourcePoint" />
            <mxPoint x="421" y="508" as="targetPoint" />
            <Array as="points">
              <mxPoint x="593" y="508" />
            </Array>
          </mxGeometry>
        </mxCell>
        <mxCell id="xGkntD76_cqOf1HurXCr-69" value="低电压循环&lt;br style=&quot;border-color: var(--border-color);&quot;&gt;状态置零" style="rounded=0;whiteSpace=wrap;html=1;fillColor=#dae8fc;strokeColor=#6c8ebf;" parent="WIyWlLk6GJQsqaUBKTNV-1" vertex="1">
          <mxGeometry x="530" y="335" width="125" height="40" as="geometry" />
        </mxCell>
        <mxCell id="xGkntD76_cqOf1HurXCr-71" value="" style="edgeStyle=orthogonalEdgeStyle;rounded=0;orthogonalLoop=1;jettySize=auto;html=1;" parent="WIyWlLk6GJQsqaUBKTNV-1" source="xGkntD76_cqOf1HurXCr-70" target="xGkntD76_cqOf1HurXCr-69" edge="1">
          <mxGeometry relative="1" as="geometry" />
        </mxCell>
        <mxCell id="xGkntD76_cqOf1HurXCr-74" value="" style="edgeStyle=orthogonalEdgeStyle;rounded=0;orthogonalLoop=1;jettySize=auto;html=1;" parent="WIyWlLk6GJQsqaUBKTNV-1" source="xGkntD76_cqOf1HurXCr-70" target="xGkntD76_cqOf1HurXCr-73" edge="1">
          <mxGeometry relative="1" as="geometry" />
        </mxCell>
        <mxCell id="xGkntD76_cqOf1HurXCr-70" value="&lt;font style=&quot;font-size: 12px;&quot;&gt;电压小于&lt;br&gt;等于5.5？&lt;/font&gt;" style="rhombus;whiteSpace=wrap;html=1;shadow=0;fontFamily=Helvetica;fontSize=12;align=center;strokeWidth=1;spacing=6;spacingTop=-4;fillColor=#d5e8d4;strokeColor=#82b366;" parent="WIyWlLk6GJQsqaUBKTNV-1" vertex="1">
          <mxGeometry x="371" y="320" width="100.25" height="70" as="geometry" />
        </mxCell>
        <mxCell id="xGkntD76_cqOf1HurXCr-72" value="&lt;font style=&quot;font-size: 10px;&quot;&gt;N&lt;/font&gt;" style="text;html=1;strokeColor=none;fillColor=default;align=center;verticalAlign=middle;whiteSpace=wrap;rounded=0;" parent="WIyWlLk6GJQsqaUBKTNV-1" vertex="1">
          <mxGeometry x="490.5" y="352" width="20" height="10" as="geometry" />
        </mxCell>
        <mxCell id="xGkntD76_cqOf1HurXCr-73" value="低电压循环&lt;br&gt;状态自增" style="rounded=0;whiteSpace=wrap;html=1;fillColor=#dae8fc;strokeColor=#6c8ebf;" parent="WIyWlLk6GJQsqaUBKTNV-1" vertex="1">
          <mxGeometry x="358.63" y="440" width="125" height="40" as="geometry" />
        </mxCell>
        <mxCell id="xGkntD76_cqOf1HurXCr-75" value="&lt;font style=&quot;font-size: 10px;&quot;&gt;Y&lt;/font&gt;" style="text;html=1;strokeColor=none;fillColor=default;align=center;verticalAlign=middle;whiteSpace=wrap;rounded=0;" parent="WIyWlLk6GJQsqaUBKTNV-1" vertex="1">
          <mxGeometry x="410.75" y="406" width="20" height="10" as="geometry" />
        </mxCell>
        <mxCell id="xGkntD76_cqOf1HurXCr-76" value="" style="edgeStyle=orthogonalEdgeStyle;rounded=0;orthogonalLoop=1;jettySize=auto;html=1;exitX=0.5;exitY=1;exitDx=0;exitDy=0;endArrow=none;endFill=0;" parent="WIyWlLk6GJQsqaUBKTNV-1" edge="1" source="xGkntD76_cqOf1HurXCr-73">
          <mxGeometry relative="1" as="geometry">
            <mxPoint x="427.005" y="479.99999999999994" as="sourcePoint" />
            <mxPoint x="236" y="508" as="targetPoint" />
            <Array as="points">
              <mxPoint x="421" y="508" />
            </Array>
          </mxGeometry>
        </mxCell>
        <mxCell id="xGkntD76_cqOf1HurXCr-79" value="&lt;font style=&quot;font-size: 10px;&quot;&gt;Y&lt;/font&gt;" style="text;html=1;strokeColor=none;fillColor=default;align=center;verticalAlign=middle;whiteSpace=wrap;rounded=0;" parent="WIyWlLk6GJQsqaUBKTNV-1" vertex="1">
          <mxGeometry x="226" y="622" width="20" height="10" as="geometry" />
        </mxCell>
        <mxCell id="xGkntD76_cqOf1HurXCr-82" value="&lt;font style=&quot;font-size: 10px;&quot;&gt;N&lt;/font&gt;" style="text;html=1;strokeColor=none;fillColor=default;align=center;verticalAlign=middle;whiteSpace=wrap;rounded=0;" parent="WIyWlLk6GJQsqaUBKTNV-1" vertex="1">
          <mxGeometry x="312" y="562" width="20" height="10" as="geometry" />
        </mxCell>
      </root>
    </mxGraphModel>
  </diagram>
</mxfile>
